<svg width="21" height="20" viewBox="0 0 21 20" fill="none" xmlns="http://www.w3.org/2000/svg">
    <path d="M17.1667 9.16667C16.7064 9.16667 16.3333 9.53976 16.3333 10V15C16.3333 15.4602 15.9602 15.8333 15.5 15.8333H5.5C5.03976 15.8333 4.66667 15.4602 4.66667 15V5C4.66667 4.53976 5.03976 4.16667 5.5 4.16667H10.5C10.9602 4.16667 11.3333 3.79357 11.3333 3.33333C11.3333 2.8731 10.9602 2.5 10.5 2.5H5.5C4.11929 2.5 3 3.61929 3 5V15C3 16.3807 4.11929 17.5 5.5 17.5H15.5C16.8807 17.5 18 16.3807 18 15V10C18 9.53976 17.6269 9.16667 17.1667 9.16667Z" fill="#131F0F"/>
    <path d="M13.8336 4.16667H15.1503L9.90861 9.4C9.75085 9.55647 9.66211 9.76947 9.66211 9.99167C9.66211 10.2139 9.75085 10.4269 9.90861 10.5833C10.0651 10.7411 10.2781 10.8298 10.5003 10.8298C10.7225 10.8298 10.9355 10.7411 11.0919 10.5833L16.3336 5.35V6.66667C16.3336 7.1269 16.7067 7.5 17.1669 7.5C17.6272 7.5 18.0003 7.1269 18.0003 6.66667V3.33333C18.0003 2.8731 17.6272 2.5 17.1669 2.5H13.8336C13.3734 2.5 13.0003 2.8731 13.0003 3.33333C13.0003 3.79357 13.3734 4.16667 13.8336 4.16667Z" fill="#131F0F"/>
</svg>
