<svg width="20" height="17" viewBox="0 0 20 17" fill="none" xmlns="http://www.w3.org/2000/svg">
    <path d="M18.5908 8.14621H16.4753C16.4753 3.83517 12.9684 0.340454 8.64166 0.340454C4.36902 0.340454 0.895097 3.74941 0.809977 7.98845C0.721977 12.3683 4.84582 16.1718 9.24198 16.1718H9.79494C13.6708 16.1718 18.8653 13.1485 19.6769 9.46493C19.8269 8.78429 19.2887 8.14621 18.5908 8.14621ZM5.4983 8.33821C5.4983 8.61718 5.38748 8.88472 5.19022 9.08198C4.99296 9.27924 4.72542 9.39005 4.44646 9.39005C4.16749 9.39005 3.89995 9.27924 3.70269 9.08198C3.50544 8.88472 3.39462 8.61718 3.39462 8.33821V6.64221C3.39462 6.36325 3.50544 6.09571 3.70269 5.89845C3.89995 5.70119 4.16749 5.59037 4.44646 5.59037C4.72542 5.59037 4.99296 5.70119 5.19022 5.89845C5.38748 6.09571 5.4983 6.36325 5.4983 6.64221V8.33821ZM9.15014 8.33821C9.14533 8.61396 9.03241 8.87678 8.83571 9.07009C8.639 9.26339 8.37425 9.37171 8.09846 9.37171C7.82267 9.37171 7.55791 9.26339 7.36121 9.07009C7.1645 8.87678 7.05159 8.61396 7.04678 8.33821V6.64221C7.05159 6.36647 7.1645 6.10364 7.36121 5.91034C7.55791 5.71703 7.82267 5.60872 8.09846 5.60872C8.37425 5.60872 8.639 5.71703 8.83571 5.91034C9.03241 6.10364 9.14533 6.36647 9.15014 6.64221V8.33821Z" fill="white"/>
</svg>
