<svg width="295" height="212" viewBox="0 0 295 212" fill="none" xmlns="http://www.w3.org/2000/svg">
<path d="M149.001 100.34V21.4987" stroke="#919EAB" stroke-opacity="0.24" stroke-width="0.842857"/>
<path d="M149 100.34L222.329 60.9191" stroke="#919EAB" stroke-opacity="0.24" stroke-width="0.842857"/>
<path d="M149 100.34L222.329 139.76" stroke="#919EAB" stroke-opacity="0.24" stroke-width="0.842857"/>
<path d="M149.001 100.34V179.18" stroke="#919EAB" stroke-opacity="0.24" stroke-width="0.842857"/>
<path d="M149 100.34L75.6719 139.76" stroke="#919EAB" stroke-opacity="0.24" stroke-width="0.842857"/>
<path d="M149 100.34L75.6719 60.9191" stroke="#919EAB" stroke-opacity="0.24" stroke-width="0.842857"/>
<path d="M149.002 79.3153L168.556 89.8274V110.852L149.002 121.364L129.447 110.852V89.8274L149.002 79.3153Z" stroke="#919EAB" stroke-opacity="0.24" stroke-width="0.842857"/>
<path d="M148.999 58.291L188.108 79.3153V121.364L148.999 142.388L109.891 121.364L109.891 79.3153L148.999 58.291Z" stroke="#919EAB" stroke-opacity="0.24" stroke-width="0.842857"/>
<path d="M149 21.4987L222.329 60.9191V139.76L149 179.18L75.6719 139.76V60.9191L149 21.4987Z" stroke="#919EAB" stroke-opacity="0.24" stroke-width="0.842857"/>
<path d="M149 21.4987L222.329 60.9191V139.76L149 179.18L75.6719 139.76V60.9191L149 21.4987Z" stroke="#919EAB" stroke-opacity="0.24" stroke-width="0.842857"/>
<path d="M149 100.34L222.329 60.9191" stroke="#919EAB" stroke-opacity="0.24" stroke-width="0.842857"/>
<path opacity="0.48" d="M151.193 37.0035L214.454 60.6558V128.985L151.193 147.381L107.396 118.472L109.83 72.4819L151.193 37.0035Z" fill="#FF7C55"/>
<path d="M151.193 37.0035L214.454 60.6558V128.985L151.193 147.381L107.396 118.472L109.83 72.4819L151.193 37.0035Z" stroke="#FF7C55" stroke-width="1.68571"/>
<path opacity="0.48" d="M148.664 37.2668L196.353 74.5849L190.513 122.941L148.664 152.375L107.301 122.678L117.033 83.2574L148.664 37.2668Z" fill="#DDFF55"/>
<path d="M148.664 37.2668L196.353 74.5849L190.513 122.941L148.664 152.375L107.301 122.678L117.033 83.2574L148.664 37.2668Z" stroke="#DDFF55" stroke-width="1.68571"/>
<path d="M140.943 190.314L138.809 197.627H137.944L136.341 191.958L134.712 197.627H133.873L131.764 190.314H132.71L134.328 196.135L135.977 190.314H136.71L138.354 196.135L140.002 190.314H140.943ZM141.945 197.627V190.112H142.856V193.167C142.943 193.022 143.061 192.887 143.21 192.762C143.358 192.634 143.538 192.531 143.751 192.453C143.963 192.373 144.209 192.332 144.489 192.332C144.83 192.332 145.138 192.396 145.415 192.524C145.691 192.649 145.91 192.828 146.072 193.06C146.234 193.293 146.315 193.569 146.315 193.89V197.627H145.379V194.077C145.379 193.763 145.271 193.522 145.056 193.354C144.843 193.182 144.565 193.096 144.221 193.096C143.989 193.096 143.769 193.135 143.564 193.212C143.358 193.286 143.191 193.401 143.063 193.556C142.938 193.708 142.876 193.902 142.876 194.138V197.627H141.945ZM149.2 197.728C148.862 197.728 148.564 197.669 148.305 197.551C148.045 197.43 147.841 197.256 147.693 197.03C147.548 196.804 147.475 196.531 147.475 196.211C147.475 195.631 147.677 195.2 148.082 194.916C148.487 194.633 149.136 194.481 150.029 194.461L150.965 194.436V194.026C150.965 193.706 150.868 193.453 150.676 193.268C150.484 193.079 150.186 192.984 149.781 192.984C149.481 192.988 149.216 193.059 148.987 193.197C148.761 193.335 148.615 193.561 148.547 193.875H147.723C147.743 193.534 147.839 193.247 148.011 193.015C148.183 192.779 148.423 192.6 148.729 192.479C149.039 192.357 149.405 192.297 149.827 192.297C150.282 192.297 150.659 192.361 150.96 192.489C151.263 192.617 151.489 192.806 151.637 193.055C151.789 193.305 151.865 193.612 151.865 193.976V197.627H151.066L151 196.646C150.798 197.054 150.54 197.337 150.226 197.495C149.916 197.651 149.574 197.728 149.2 197.728ZM149.483 197.055C149.658 197.055 149.832 197.023 150.004 196.959C150.179 196.895 150.339 196.809 150.484 196.701C150.629 196.59 150.744 196.467 150.828 196.332C150.916 196.194 150.961 196.052 150.965 195.908V195.012L150.186 195.028C149.788 195.034 149.454 195.075 149.184 195.149C148.918 195.223 148.718 195.339 148.583 195.498C148.451 195.656 148.385 195.864 148.385 196.12C148.385 196.413 148.487 196.642 148.689 196.808C148.895 196.973 149.159 197.055 149.483 197.055ZM154.782 197.693C154.499 197.693 154.27 197.654 154.094 197.576C153.923 197.499 153.789 197.394 153.695 197.263C153.604 197.131 153.542 196.981 153.508 196.813C153.477 196.641 153.462 196.464 153.462 196.282V190.112H154.383V196.191C154.383 196.454 154.433 196.651 154.534 196.782C154.639 196.914 154.784 196.986 154.969 197L155.253 197.005V197.612C155.175 197.635 155.094 197.654 155.01 197.667C154.926 197.684 154.85 197.693 154.782 197.693ZM157.063 195.23C157.063 195.56 157.117 195.86 157.225 196.13C157.336 196.396 157.503 196.609 157.726 196.767C157.952 196.926 158.233 197.005 158.57 197.005C158.904 197.005 159.191 196.927 159.43 196.772C159.673 196.617 159.828 196.393 159.895 196.1H160.78C160.716 196.454 160.575 196.752 160.356 196.995C160.136 197.238 159.872 197.421 159.562 197.546C159.251 197.667 158.928 197.728 158.591 197.728C158.102 197.728 157.672 197.622 157.301 197.409C156.93 197.197 156.64 196.892 156.431 196.494C156.222 196.096 156.118 195.619 156.118 195.063C156.118 194.513 156.212 194.031 156.401 193.617C156.59 193.202 156.863 192.878 157.22 192.646C157.581 192.413 158.014 192.297 158.52 192.297C159.012 192.297 159.428 192.403 159.769 192.615C160.109 192.828 160.367 193.128 160.543 193.515C160.721 193.9 160.811 194.357 160.811 194.886V195.23H157.063ZM157.068 194.598H159.911C159.911 194.298 159.86 194.028 159.759 193.789C159.658 193.546 159.503 193.355 159.294 193.217C159.088 193.076 158.828 193.005 158.515 193.005C158.188 193.005 157.916 193.084 157.701 193.242C157.488 193.397 157.328 193.598 157.22 193.844C157.116 194.087 157.065 194.338 157.068 194.598ZM163.921 197.728C163.557 197.728 163.218 197.672 162.905 197.561C162.595 197.447 162.337 197.27 162.131 197.03C161.925 196.787 161.796 196.479 161.742 196.105H162.591C162.639 196.31 162.723 196.482 162.844 196.621C162.969 196.755 163.124 196.858 163.309 196.929C163.495 196.996 163.697 197.03 163.916 197.03C164.267 197.03 164.55 196.964 164.766 196.833C164.982 196.701 165.09 196.499 165.09 196.226C165.09 196.034 165.032 195.881 164.918 195.766C164.806 195.648 164.633 195.562 164.397 195.508L163.315 195.24C162.893 195.139 162.556 194.98 162.303 194.765C162.05 194.549 161.924 194.247 161.924 193.859C161.92 193.553 161.993 193.283 162.141 193.05C162.29 192.818 162.512 192.634 162.809 192.499C163.105 192.364 163.475 192.297 163.916 192.297C164.483 192.297 164.94 192.425 165.287 192.681C165.637 192.934 165.819 193.306 165.833 193.799H165.009C164.975 193.549 164.862 193.352 164.67 193.207C164.481 193.059 164.226 192.984 163.906 192.984C163.572 192.984 163.301 193.052 163.092 193.187C162.883 193.318 162.778 193.524 162.778 193.804C162.778 193.989 162.853 194.136 163.001 194.244C163.149 194.348 163.368 194.436 163.658 194.507L164.705 194.77C164.948 194.834 165.147 194.918 165.302 195.023C165.46 195.127 165.585 195.243 165.676 195.371C165.771 195.5 165.836 195.634 165.873 195.776C165.914 195.914 165.934 196.047 165.934 196.176C165.934 196.496 165.853 196.772 165.691 197.005C165.533 197.234 165.304 197.413 165.004 197.541C164.707 197.666 164.346 197.728 163.921 197.728Z" fill="#F3F4EF"/>
<path d="M124.329 13.884V6.5714H126.681C127.571 6.5714 128.243 6.73492 128.698 7.06195C129.157 7.38898 129.386 7.86098 129.386 8.47795C129.386 8.86566 129.285 9.19775 129.083 9.4742C128.884 9.75066 128.533 9.97823 128.031 10.1569C128.317 10.2176 128.558 10.3053 128.754 10.4199C128.953 10.5345 129.111 10.6694 129.229 10.8245C129.351 10.9762 129.437 11.1447 129.487 11.3302C129.541 11.5156 129.568 11.7111 129.568 11.9168C129.568 12.5776 129.332 13.0715 128.86 13.3985C128.392 13.7222 127.69 13.884 126.756 13.884H124.329ZM125.265 13.1052H126.746C127.357 13.1052 127.82 13.0058 128.137 12.8069C128.457 12.6046 128.617 12.2944 128.617 11.8763C128.617 11.5695 128.538 11.3217 128.38 11.1329C128.225 10.9408 128.014 10.8009 127.748 10.7132C127.481 10.6255 127.185 10.5817 126.858 10.5817H125.265V13.1052ZM125.265 9.78775H126.858C127.05 9.78775 127.24 9.7692 127.429 9.73212C127.618 9.69503 127.791 9.63098 127.95 9.53995C128.108 9.44892 128.236 9.32755 128.334 9.17583C128.432 9.02075 128.481 8.82689 128.481 8.59426C128.481 8.16946 128.317 7.85592 127.99 7.65363C127.667 7.44798 127.245 7.34515 126.726 7.34515H125.265V9.78775ZM133.775 6.47026C134.291 6.47026 134.748 6.57815 135.146 6.79392C135.544 7.00632 135.864 7.2912 136.107 7.64858C136.35 8.00595 136.493 8.39872 136.537 8.82689H135.54C135.486 8.54032 135.384 8.28072 135.232 8.04809C135.08 7.81546 134.881 7.63003 134.635 7.4918C134.389 7.35358 134.094 7.28446 133.75 7.28446C133.308 7.28446 132.934 7.38898 132.627 7.598C132.324 7.80366 132.093 8.12226 131.935 8.5538C131.78 8.98535 131.702 9.53826 131.702 10.2125C131.702 11.2307 131.876 11.9792 132.223 12.4579C132.574 12.9333 133.083 13.171 133.75 13.171C134.094 13.171 134.389 13.0985 134.635 12.9535C134.881 12.8085 135.08 12.6147 135.232 12.3719C135.384 12.1292 135.486 11.8662 135.54 11.583H136.537C136.5 11.8932 136.415 12.1933 136.284 12.4832C136.156 12.7698 135.979 13.026 135.753 13.2519C135.527 13.4778 135.249 13.6565 134.918 13.7879C134.591 13.9194 134.21 13.9852 133.775 13.9852C133.118 13.9852 132.557 13.8351 132.091 13.5351C131.63 13.235 131.276 12.8035 131.029 12.2405C130.787 11.6774 130.665 10.9981 130.665 10.2024C130.665 9.41015 130.787 8.73586 131.029 8.17958C131.272 7.62329 131.624 7.20018 132.086 6.91023C132.552 6.61692 133.115 6.47026 133.775 6.47026ZM140.187 13.884V6.36912H141.098V9.42363C141.185 9.27866 141.303 9.1438 141.452 9.01906C141.6 8.89095 141.78 8.78812 141.993 8.71058C142.205 8.62966 142.451 8.5892 142.731 8.5892C143.072 8.5892 143.38 8.65326 143.657 8.78138C143.933 8.90612 144.152 9.0848 144.314 9.31743C144.476 9.55006 144.557 9.82652 144.557 10.1468V13.884H143.621V10.3339C143.621 10.0204 143.513 9.77932 143.297 9.61075C143.085 9.4388 142.807 9.35283 142.463 9.35283C142.23 9.35283 142.011 9.3916 141.806 9.46915C141.6 9.54332 141.433 9.65795 141.305 9.81303C141.18 9.96475 141.118 10.1586 141.118 10.3946V13.884H140.187ZM148.093 13.9852C147.611 13.9852 147.19 13.8823 146.829 13.6767C146.468 13.4677 146.189 13.1625 145.99 12.7613C145.791 12.3601 145.691 11.8696 145.691 11.2897C145.691 10.7435 145.784 10.2648 145.969 9.85349C146.155 9.44218 146.426 9.12358 146.784 8.89769C147.144 8.66843 147.581 8.5538 148.093 8.5538C148.575 8.5538 148.994 8.66 149.348 8.8724C149.705 9.08143 149.981 9.38992 150.177 9.79786C150.372 10.2058 150.47 10.7031 150.47 11.2897C150.47 11.8224 150.379 12.291 150.197 12.6956C150.018 13.1002 149.752 13.4171 149.398 13.6463C149.047 13.8722 148.613 13.9852 148.093 13.9852ZM148.093 13.2468C148.407 13.2468 148.672 13.1676 148.887 13.0091C149.103 12.8507 149.267 12.6231 149.378 12.3264C149.489 12.0297 149.545 11.6774 149.545 11.2695C149.545 10.8953 149.496 10.5598 149.398 10.2631C149.3 9.96306 149.144 9.72538 148.928 9.55006C148.715 9.37475 148.437 9.28709 148.093 9.28709C147.776 9.28709 147.508 9.36632 147.289 9.52478C147.07 9.67986 146.903 9.90575 146.789 10.2024C146.677 10.4991 146.622 10.8548 146.622 11.2695C146.622 11.637 146.672 11.9707 146.773 12.2708C146.875 12.5709 147.033 12.8085 147.249 12.9839C147.465 13.1592 147.746 13.2468 148.093 13.2468ZM153.014 13.9498C152.731 13.9498 152.502 13.911 152.326 13.8335C152.155 13.7559 152.021 13.6514 151.927 13.5199C151.836 13.3884 151.774 13.2384 151.74 13.0698C151.709 12.8979 151.694 12.7209 151.694 12.5388V6.36912H152.615V12.4478C152.615 12.7108 152.665 12.908 152.766 13.0395C152.871 13.171 153.016 13.2435 153.201 13.2569L153.485 13.262V13.8689C153.407 13.8925 153.326 13.911 153.242 13.9245C153.158 13.9413 153.082 13.9498 153.014 13.9498ZM156.514 13.9852C155.836 13.9852 155.299 13.7525 154.901 13.2873C154.503 12.822 154.304 12.1427 154.304 11.2493C154.304 10.7065 154.383 10.2328 154.542 9.8282C154.704 9.42363 154.943 9.11009 155.26 8.88758C155.577 8.66506 155.971 8.5538 156.443 8.5538C156.693 8.5538 156.914 8.58583 157.106 8.64989C157.301 8.71395 157.47 8.79486 157.612 8.89263C157.753 8.9904 157.868 9.09155 157.955 9.19606C158.046 9.30058 158.114 9.39666 158.158 9.48432V6.36912H159.098V13.884H158.385L158.284 12.8119C158.25 12.9131 158.196 13.0311 158.122 13.1659C158.048 13.2974 157.944 13.4272 157.809 13.5553C157.674 13.6801 157.5 13.7829 157.288 13.8638C157.079 13.9447 156.821 13.9852 156.514 13.9852ZM156.681 13.2671C157.21 13.2671 157.588 13.1069 157.814 12.7866C158.043 12.463 158.158 11.9353 158.158 11.2037C158.154 10.7958 158.102 10.4485 158.001 10.162C157.903 9.8754 157.748 9.65795 157.536 9.5096C157.327 9.35789 157.049 9.28203 156.701 9.28203C156.27 9.28203 155.919 9.43543 155.649 9.74223C155.38 10.049 155.245 10.5362 155.245 11.2037C155.245 11.8578 155.366 12.3652 155.609 12.7259C155.855 13.0867 156.212 13.2671 156.681 13.2671ZM161.311 11.4869C161.311 11.8173 161.365 12.1174 161.472 12.3871C161.584 12.6535 161.751 12.8659 161.973 13.0243C162.199 13.1828 162.481 13.262 162.818 13.262C163.151 13.262 163.438 13.1845 163.677 13.0294C163.92 12.8743 164.075 12.6501 164.143 12.3568H165.028C164.964 12.7108 164.822 13.0091 164.603 13.2519C164.384 13.4946 164.119 13.6784 163.809 13.8031C163.499 13.9245 163.175 13.9852 162.838 13.9852C162.349 13.9852 161.919 13.879 161.548 13.6666C161.177 13.4542 160.888 13.1491 160.678 12.7512C160.469 12.3534 160.365 11.8763 160.365 11.3201C160.365 10.7705 160.459 10.2884 160.648 9.87372C160.837 9.45903 161.11 9.13538 161.467 8.90275C161.828 8.67012 162.261 8.5538 162.767 8.5538C163.259 8.5538 163.676 8.66 164.016 8.8724C164.357 9.0848 164.615 9.38486 164.79 9.77258C164.969 10.1569 165.058 10.6137 165.058 11.1431V11.4869H161.311ZM161.316 10.8548H164.158C164.158 10.5547 164.107 10.285 164.006 10.0457C163.905 9.80292 163.75 9.61243 163.541 9.4742C163.335 9.3326 163.076 9.2618 162.762 9.2618C162.435 9.2618 162.164 9.34103 161.948 9.49949C161.735 9.65458 161.575 9.85518 161.467 10.1013C161.363 10.344 161.312 10.5952 161.316 10.8548ZM166.342 13.884V8.65495H167.232V9.66132C167.32 9.41183 167.443 9.20618 167.601 9.04435C167.76 8.87915 167.94 8.75609 168.143 8.67518C168.348 8.59426 168.561 8.5538 168.78 8.5538C168.857 8.5538 168.933 8.55886 169.007 8.56898C169.082 8.57909 169.139 8.59595 169.179 8.61955V9.52478C169.129 9.50118 169.063 9.486 168.982 9.47926C168.905 9.46915 168.839 9.46409 168.785 9.46409C168.576 9.4506 168.38 9.46409 168.198 9.50455C168.016 9.54163 167.856 9.60738 167.718 9.70178C167.58 9.79618 167.47 9.92092 167.389 10.076C167.312 10.2277 167.273 10.4131 167.273 10.6323V13.884H166.342ZM172.09 13.9852C171.726 13.9852 171.387 13.9295 171.073 13.8183C170.763 13.7037 170.505 13.5267 170.3 13.2873C170.094 13.0445 169.964 12.7361 169.91 12.3618H170.76C170.807 12.5675 170.891 12.7394 171.013 12.8777C171.137 13.0125 171.293 13.1153 171.478 13.1861C171.663 13.2536 171.866 13.2873 172.085 13.2873C172.435 13.2873 172.719 13.2215 172.934 13.0901C173.15 12.9586 173.258 12.7563 173.258 12.4832C173.258 12.291 173.201 12.1376 173.086 12.023C172.975 11.905 172.801 11.819 172.565 11.7651L171.483 11.4971C171.062 11.3959 170.724 11.2375 170.472 11.0217C170.219 10.8059 170.092 10.5042 170.092 10.1165C170.089 9.80966 170.161 9.53995 170.31 9.30732C170.458 9.07469 170.681 8.89095 170.977 8.75609C171.274 8.62123 171.643 8.5538 172.085 8.5538C172.651 8.5538 173.108 8.68192 173.455 8.93815C173.806 9.191 173.988 9.56355 174.001 10.0558H173.177C173.143 9.80629 173.03 9.60906 172.838 9.46409C172.65 9.31575 172.395 9.24158 172.075 9.24158C171.741 9.24158 171.47 9.309 171.26 9.44386C171.051 9.57535 170.947 9.781 170.947 10.0608C170.947 10.2463 171.021 10.3929 171.169 10.5008C171.318 10.6053 171.537 10.693 171.827 10.7638L172.874 11.0267C173.116 11.0908 173.315 11.1751 173.47 11.2796C173.629 11.3841 173.754 11.5004 173.845 11.6285C173.939 11.7567 174.005 11.8915 174.042 12.0331C174.082 12.1713 174.103 12.3045 174.103 12.4326C174.103 12.7529 174.022 13.0294 173.86 13.262C173.701 13.4913 173.472 13.6699 173.172 13.7981C172.875 13.9228 172.515 13.9852 172.09 13.9852Z" fill="#F3F4EF"/>
<path d="M223.294 47.0286H227.851L227.845 47.8478H224.255V50.2651H227.481V51.0743H224.255V54.3412H223.294V47.0286ZM230.427 54.4069C230.144 54.4069 229.915 54.3682 229.739 54.2906C229.567 54.2131 229.434 54.1086 229.34 53.9771C229.249 53.8456 229.186 53.6956 229.153 53.527C229.122 53.355 229.107 53.178 229.107 52.996V46.8263H230.028V52.905C230.028 53.1679 230.078 53.3652 230.179 53.4966C230.284 53.6281 230.429 53.7006 230.614 53.7141L230.897 53.7192V54.326C230.82 54.3496 230.739 54.3682 230.655 54.3816C230.57 54.3985 230.495 54.4069 230.427 54.4069ZM233.111 49.1121V54.3412H232.206V49.1121H233.111ZM233.132 47.0336V48.0046H232.176V47.0336H233.132ZM234.816 55.9696V49.1121H235.747L235.757 50.0224C235.818 49.9145 235.895 49.8016 235.99 49.6836C236.087 49.5656 236.205 49.456 236.344 49.3548C236.485 49.2537 236.649 49.1711 236.834 49.107C237.023 49.043 237.237 49.011 237.476 49.011C237.894 49.011 238.262 49.107 238.579 49.2992C238.899 49.488 239.149 49.778 239.327 50.169C239.506 50.5601 239.595 51.0557 239.595 51.6558C239.595 52.256 239.508 52.7634 239.332 53.178C239.16 53.5894 238.911 53.9029 238.584 54.1187C238.257 54.3344 237.862 54.4423 237.4 54.4423C237.168 54.4423 236.96 54.4086 236.778 54.3412C236.6 54.2771 236.443 54.1928 236.308 54.0883C236.177 53.9804 236.065 53.8658 235.974 53.7444C235.887 53.6231 235.814 53.5068 235.757 53.3955V55.9696H234.816ZM237.223 53.7141C237.655 53.7141 238.007 53.5506 238.28 53.2236C238.553 52.8932 238.69 52.3807 238.69 51.6862C238.69 51.0894 238.565 50.6158 238.316 50.2651C238.066 49.9145 237.702 49.7392 237.223 49.7392C236.738 49.7392 236.37 49.9196 236.121 50.2803C235.872 50.6377 235.747 51.1063 235.747 51.6862C235.747 52.0604 235.802 52.4009 235.914 52.7077C236.025 53.0145 236.19 53.259 236.409 53.441C236.628 53.6231 236.9 53.7141 237.223 53.7141ZM240.822 55.9696V49.1121H241.752L241.762 50.0224C241.823 49.9145 241.9 49.8016 241.995 49.6836C242.093 49.5656 242.211 49.456 242.349 49.3548C242.49 49.2537 242.654 49.1711 242.839 49.107C243.028 49.043 243.242 49.011 243.482 49.011C243.9 49.011 244.267 49.107 244.584 49.2992C244.904 49.488 245.154 49.778 245.333 50.169C245.511 50.5601 245.601 51.0557 245.601 51.6558C245.601 52.256 245.513 52.7634 245.338 53.178C245.166 53.5894 244.916 53.9029 244.589 54.1187C244.262 54.3344 243.868 54.4423 243.406 54.4423C243.173 54.4423 242.966 54.4086 242.784 54.3412C242.605 54.2771 242.448 54.1928 242.313 54.0883C242.182 53.9804 242.071 53.8658 241.98 53.7444C241.892 53.6231 241.82 53.5068 241.762 53.3955V55.9696H240.822ZM243.229 53.7141C243.66 53.7141 244.013 53.5506 244.286 53.2236C244.559 52.8932 244.695 52.3807 244.695 51.6862C244.695 51.0894 244.571 50.6158 244.321 50.2651C244.072 49.9145 243.708 49.7392 243.229 49.7392C242.743 49.7392 242.376 49.9196 242.126 50.2803C241.877 50.6377 241.752 51.1063 241.752 51.6862C241.752 52.0604 241.808 52.4009 241.919 52.7077C242.03 53.0145 242.195 53.259 242.415 53.441C242.634 53.6231 242.905 53.7141 243.229 53.7141ZM247.495 51.9441C247.495 52.2745 247.548 52.5746 247.656 52.8443C247.768 53.1106 247.934 53.323 248.157 53.4815C248.383 53.6399 248.664 53.7192 249.002 53.7192C249.335 53.7192 249.622 53.6416 249.861 53.4865C250.104 53.3314 250.259 53.1072 250.327 52.8139H251.212C251.147 53.1679 251.006 53.4663 250.787 53.709C250.568 53.9518 250.303 54.1355 249.993 54.2603C249.683 54.3816 249.359 54.4423 249.022 54.4423C248.533 54.4423 248.103 54.3361 247.732 54.1237C247.361 53.9113 247.071 53.6062 246.862 53.2084C246.653 52.8106 246.549 52.3335 246.549 51.7772C246.549 51.2277 246.643 50.7456 246.832 50.3309C247.021 49.9162 247.294 49.5925 247.651 49.3599C248.012 49.1273 248.445 49.011 248.951 49.011C249.443 49.011 249.86 49.1172 250.2 49.3296C250.541 49.542 250.799 49.842 250.974 50.2297C251.153 50.6141 251.242 51.0709 251.242 51.6002V51.9441H247.495ZM247.5 51.312H250.342C250.342 51.0119 250.291 50.7422 250.19 50.5028C250.089 50.2601 249.934 50.0696 249.725 49.9314C249.519 49.7898 249.259 49.719 248.946 49.719C248.619 49.719 248.347 49.7982 248.132 49.9566C247.919 50.1117 247.759 50.3123 247.651 50.5584C247.547 50.8012 247.496 51.0524 247.5 51.312ZM252.526 54.3412V49.1121H253.416V50.1185C253.504 49.869 253.627 49.6633 253.785 49.5015C253.944 49.3363 254.124 49.2132 254.326 49.1323C254.532 49.0514 254.745 49.011 254.964 49.011C255.041 49.011 255.117 49.016 255.191 49.0261C255.265 49.0362 255.323 49.0531 255.363 49.0767V49.9819C255.313 49.9583 255.247 49.9432 255.166 49.9364C255.088 49.9263 255.023 49.9212 254.969 49.9212C254.76 49.9078 254.564 49.9212 254.382 49.9617C254.2 49.9988 254.04 50.0645 253.902 50.1589C253.763 50.2533 253.654 50.3781 253.573 50.5332C253.495 50.6849 253.457 50.8703 253.457 51.0894V54.3412H252.526ZM258.274 54.4423C257.91 54.4423 257.571 54.3867 257.257 54.2754C256.947 54.1608 256.689 53.9838 256.484 53.7444C256.278 53.5017 256.148 53.1932 256.094 52.819H256.944C256.991 53.0246 257.075 53.1966 257.197 53.3348C257.321 53.4697 257.476 53.5725 257.662 53.6433C257.847 53.7107 258.05 53.7444 258.269 53.7444C258.619 53.7444 258.903 53.6787 259.118 53.5472C259.334 53.4157 259.442 53.2134 259.442 52.9404C259.442 52.7482 259.385 52.5948 259.27 52.4802C259.159 52.3622 258.985 52.2762 258.749 52.2222L257.667 51.9542C257.245 51.8531 256.908 51.6946 256.655 51.4788C256.403 51.2631 256.276 50.9613 256.276 50.5736C256.273 50.2668 256.345 49.9971 256.494 49.7645C256.642 49.5318 256.864 49.3481 257.161 49.2132C257.458 49.0784 257.827 49.011 258.269 49.011C258.835 49.011 259.292 49.1391 259.639 49.3953C259.99 49.6482 260.172 50.0207 260.185 50.5129H259.361C259.327 50.2634 259.214 50.0662 259.022 49.9212C258.833 49.7729 258.579 49.6987 258.259 49.6987C257.925 49.6987 257.653 49.7662 257.444 49.901C257.235 50.0325 257.131 50.2382 257.131 50.518C257.131 50.7034 257.205 50.8501 257.353 50.958C257.502 51.0625 257.721 51.1501 258.011 51.2209L259.058 51.4839C259.3 51.548 259.499 51.6322 259.654 51.7368C259.813 51.8413 259.938 51.9576 260.029 52.0857C260.123 52.2138 260.189 52.3487 260.226 52.4903C260.266 52.6285 260.286 52.7617 260.286 52.8898C260.286 53.2101 260.206 53.4865 260.044 53.7192C259.885 53.9484 259.656 54.1271 259.356 54.2552C259.059 54.38 258.699 54.4423 258.274 54.4423Z" fill="#F3F4EF"/>
<path d="M225.777 152.214C225.433 152.214 225.099 152.172 224.776 152.087C224.452 152 224.159 151.87 223.896 151.698C223.633 151.526 223.414 151.314 223.238 151.061C223.066 150.804 222.959 150.508 222.915 150.171H223.896C223.957 150.447 224.076 150.68 224.255 150.868C224.437 151.057 224.658 151.199 224.917 151.293C225.18 151.388 225.465 151.435 225.772 151.435C226.116 151.435 226.423 151.388 226.692 151.293C226.966 151.196 227.18 151.057 227.335 150.879C227.493 150.7 227.572 150.486 227.572 150.236C227.572 150.017 227.522 149.827 227.421 149.665C227.323 149.503 227.18 149.368 226.991 149.26C226.802 149.152 226.573 149.068 226.303 149.007L224.867 148.674C224.327 148.556 223.904 148.345 223.597 148.042C223.294 147.738 223.139 147.337 223.132 146.838C223.132 146.417 223.243 146.046 223.466 145.725C223.692 145.405 224 145.156 224.391 144.977C224.786 144.798 225.236 144.709 225.742 144.709C226.325 144.709 226.815 144.808 227.213 145.007C227.611 145.206 227.911 145.467 228.113 145.791C228.316 146.115 228.419 146.46 228.422 146.828H227.456C227.426 146.497 227.328 146.236 227.163 146.044C227.001 145.848 226.797 145.71 226.551 145.629C226.305 145.545 226.037 145.503 225.747 145.503C225.538 145.503 225.335 145.53 225.14 145.584C224.948 145.634 224.774 145.712 224.619 145.816C224.467 145.921 224.346 146.051 224.255 146.206C224.164 146.361 224.118 146.541 224.118 146.747C224.118 147.01 224.208 147.224 224.386 147.389C224.568 147.554 224.897 147.696 225.373 147.814L226.763 148.148C227.127 148.225 227.424 148.34 227.653 148.492C227.886 148.643 228.065 148.815 228.189 149.007C228.317 149.2 228.405 149.4 228.452 149.609C228.503 149.818 228.528 150.024 228.528 150.226C228.528 150.594 228.419 150.929 228.199 151.233C227.98 151.533 227.665 151.772 227.254 151.951C226.846 152.126 226.354 152.214 225.777 152.214ZM232.436 147.566H231.257V150.818C231.257 151.003 231.276 151.14 231.313 151.228C231.353 151.312 231.419 151.366 231.51 151.389C231.604 151.413 231.733 151.425 231.894 151.425H232.466V152.052C232.402 152.075 232.304 152.096 232.173 152.113C232.044 152.129 231.884 152.138 231.692 152.138C231.331 152.138 231.052 152.089 230.853 151.991C230.654 151.893 230.514 151.748 230.433 151.556C230.355 151.364 230.317 151.128 230.317 150.848V147.566H229.467V146.883H230.342L230.569 145.361H231.257V146.878H232.436V147.566ZM233.779 152.113V146.883H234.669V147.89C234.757 147.64 234.88 147.435 235.038 147.273C235.197 147.108 235.377 146.985 235.579 146.904C235.785 146.823 235.998 146.782 236.217 146.782C236.294 146.782 236.37 146.787 236.444 146.797C236.518 146.808 236.576 146.824 236.616 146.848V147.753C236.566 147.73 236.5 147.715 236.419 147.708C236.341 147.698 236.276 147.693 236.222 147.693C236.013 147.679 235.817 147.693 235.635 147.733C235.453 147.77 235.293 147.836 235.155 147.93C235.016 148.025 234.907 148.149 234.826 148.305C234.748 148.456 234.71 148.642 234.71 148.861V152.113H233.779ZM239.67 152.214C239.188 152.214 238.767 152.111 238.406 151.905C238.045 151.696 237.765 151.391 237.566 150.99C237.368 150.589 237.268 150.098 237.268 149.518C237.268 148.972 237.361 148.493 237.546 148.082C237.732 147.671 238.003 147.352 238.36 147.126C238.721 146.897 239.158 146.782 239.67 146.782C240.152 146.782 240.57 146.889 240.924 147.101C241.282 147.31 241.558 147.618 241.754 148.026C241.949 148.434 242.047 148.932 242.047 149.518C242.047 150.051 241.956 150.52 241.774 150.924C241.595 151.329 241.329 151.646 240.975 151.875C240.624 152.101 240.189 152.214 239.67 152.214ZM239.67 151.475C239.984 151.475 240.248 151.396 240.464 151.238C240.68 151.079 240.844 150.852 240.955 150.555C241.066 150.258 241.122 149.906 241.122 149.498C241.122 149.124 241.073 148.788 240.975 148.492C240.877 148.192 240.72 147.954 240.505 147.779C240.292 147.603 240.014 147.516 239.67 147.516C239.353 147.516 239.085 147.595 238.866 147.753C238.647 147.908 238.48 148.134 238.366 148.431C238.254 148.728 238.199 149.083 238.199 149.498C238.199 149.865 238.249 150.199 238.35 150.499C238.451 150.799 238.61 151.037 238.826 151.212C239.041 151.388 239.323 151.475 239.67 151.475ZM243.271 152.113V146.883H244.176V147.642C244.261 147.497 244.377 147.361 244.525 147.232C244.677 147.104 244.859 147.001 245.072 146.924C245.287 146.846 245.535 146.808 245.815 146.808C246.145 146.808 246.449 146.873 246.725 147.005C247.005 147.136 247.228 147.342 247.393 147.622C247.561 147.898 247.646 148.256 247.646 148.694V152.113H246.71V148.785C246.71 148.377 246.602 148.075 246.386 147.88C246.174 147.681 245.898 147.581 245.557 147.581C245.321 147.581 245.1 147.62 244.895 147.698C244.689 147.772 244.522 147.886 244.394 148.042C244.266 148.193 244.202 148.385 244.202 148.618V152.113H243.271ZM251.314 153.842C250.491 153.842 249.85 153.722 249.392 153.483C248.937 153.247 248.709 152.908 248.709 152.467C248.709 152.278 248.753 152.118 248.841 151.986C248.928 151.851 249.033 151.74 249.154 151.652C249.276 151.565 249.388 151.496 249.493 151.445C249.597 151.391 249.665 151.352 249.695 151.329C249.638 151.295 249.565 151.253 249.478 151.202C249.394 151.152 249.319 151.084 249.255 151C249.191 150.916 249.159 150.806 249.159 150.671C249.159 150.506 249.237 150.354 249.392 150.216C249.547 150.078 249.776 149.975 250.08 149.908C249.773 149.753 249.533 149.547 249.361 149.291C249.19 149.034 249.104 148.756 249.104 148.456C249.104 148.119 249.195 147.826 249.377 147.576C249.562 147.327 249.825 147.136 250.166 147.005C250.506 146.87 250.911 146.803 251.379 146.803C251.72 146.803 252.006 146.843 252.239 146.924C252.472 147.001 252.687 147.113 252.886 147.258C252.94 147.234 253.025 147.199 253.139 147.151C253.257 147.101 253.387 147.047 253.529 146.99C253.67 146.932 253.802 146.878 253.923 146.828C254.048 146.774 254.147 146.733 254.221 146.706L254.216 147.571L253.301 147.743C253.352 147.851 253.392 147.969 253.422 148.097C253.456 148.225 253.473 148.345 253.473 148.456C253.473 148.763 253.392 149.041 253.23 149.291C253.072 149.54 252.831 149.739 252.507 149.887C252.183 150.036 251.779 150.11 251.293 150.11C251.253 150.11 251.201 150.11 251.137 150.11C251.076 150.107 251.024 150.103 250.98 150.1C250.622 150.11 250.376 150.15 250.241 150.221C250.107 150.289 250.039 150.364 250.039 150.449C250.039 150.547 250.115 150.614 250.267 150.651C250.418 150.688 250.676 150.72 251.04 150.747C251.172 150.754 251.334 150.762 251.526 150.772C251.721 150.783 251.937 150.796 252.173 150.813C252.723 150.847 253.146 150.986 253.443 151.233C253.739 151.479 253.888 151.811 253.888 152.229C253.888 152.704 253.675 153.092 253.25 153.392C252.826 153.692 252.18 153.842 251.314 153.842ZM251.48 153.24C251.963 153.24 252.332 153.168 252.588 153.023C252.844 152.878 252.972 152.659 252.972 152.365C252.972 152.156 252.893 151.986 252.735 151.855C252.58 151.72 252.342 151.642 252.022 151.622L250.555 151.526C250.423 151.519 250.287 151.553 250.145 151.627C250.004 151.698 249.882 151.797 249.781 151.925C249.683 152.054 249.635 152.199 249.635 152.36C249.635 152.637 249.785 152.853 250.085 153.008C250.388 153.163 250.853 153.24 251.48 153.24ZM251.319 149.508C251.696 149.508 252 149.42 252.229 149.245C252.462 149.07 252.578 148.81 252.578 148.466C252.578 148.112 252.462 147.843 252.229 147.657C252 147.472 251.696 147.379 251.319 147.379C250.938 147.379 250.629 147.473 250.393 147.662C250.161 147.848 250.044 148.116 250.044 148.466C250.044 148.797 250.155 149.053 250.378 149.235C250.6 149.417 250.914 149.508 251.319 149.508Z" fill="#F3F4EF"/>
<path d="M46.6159 144.8H47.5515V152.113H46.7171L42.7927 146.347V152.113H41.8572V144.8H42.7523L46.6159 150.484V144.8ZM49.8886 149.715C49.8886 150.046 49.9425 150.346 50.0504 150.616C50.1617 150.882 50.3286 151.094 50.5511 151.253C50.777 151.411 51.0585 151.491 51.3956 151.491C51.7294 151.491 52.016 151.413 52.2553 151.258C52.4981 151.103 52.6532 150.879 52.7206 150.585H53.6056C53.5415 150.939 53.3999 151.238 53.1808 151.48C52.9617 151.723 52.697 151.907 52.3868 152.032C52.0767 152.153 51.753 152.214 51.4159 152.214C50.927 152.214 50.4971 152.107 50.1263 151.895C49.7554 151.683 49.4655 151.378 49.2565 150.98C49.0474 150.582 48.9429 150.105 48.9429 149.549C48.9429 148.999 49.0373 148.517 49.2261 148.102C49.4149 147.688 49.688 147.364 50.0454 147.131C50.4061 146.899 50.8393 146.782 51.3451 146.782C51.8373 146.782 52.2537 146.889 52.5942 147.101C52.9347 147.313 53.1926 147.613 53.3679 148.001C53.5466 148.385 53.6359 148.842 53.6359 149.372V149.715H49.8886ZM49.8937 149.083H52.7358C52.7358 148.783 52.6852 148.514 52.5841 148.274C52.4829 148.031 52.3278 147.841 52.1188 147.703C51.9131 147.561 51.6535 147.49 51.34 147.49C51.013 147.49 50.7416 147.57 50.5258 147.728C50.3134 147.883 50.1533 148.084 50.0454 148.33C49.9409 148.573 49.8903 148.824 49.8937 149.083ZM61.6103 146.883L60.0274 152.113H59.107L57.9135 148.254L56.7807 152.113H55.8654L54.2521 146.883H55.1169L56.3154 150.904H56.3964L57.5747 146.883H58.2827L59.5065 150.894H59.5874L60.7354 146.883H61.6103ZM65.2581 152.214C64.9513 152.214 64.6917 152.173 64.4793 152.092C64.2702 152.011 64.0983 151.909 63.9634 151.784C63.8286 151.656 63.7241 151.526 63.6499 151.394C63.5757 151.26 63.5218 151.142 63.4881 151.04L63.3869 152.113H62.6739V144.598H63.6145V147.713C63.6583 147.625 63.7241 147.529 63.8117 147.425C63.9027 147.32 64.0191 147.219 64.1607 147.121C64.3023 147.023 64.4691 146.942 64.6613 146.878C64.8569 146.814 65.0794 146.782 65.3289 146.782C65.9829 146.782 66.5021 147.01 66.8865 147.465C67.2742 147.92 67.468 148.591 67.468 149.478C67.468 150.027 67.3854 150.508 67.2202 150.919C67.055 151.327 66.8089 151.646 66.4819 151.875C66.1549 152.101 65.7469 152.214 65.2581 152.214ZM65.0912 151.496C65.516 151.496 65.8615 151.332 66.1279 151.005C66.3942 150.675 66.5274 150.15 66.5274 149.432C66.5274 148.822 66.4027 148.35 66.1532 148.016C65.9071 147.679 65.5463 147.511 65.0709 147.511C64.7237 147.511 64.4439 147.586 64.2315 147.738C64.0224 147.886 63.8673 148.104 63.7662 148.39C63.6684 148.677 63.6179 149.024 63.6145 149.432C63.6145 150.164 63.7274 150.691 63.9533 151.015C64.1826 151.335 64.5619 151.496 65.0912 151.496ZM69.7005 146.883V152.113H68.7953V146.883H69.7005ZM69.7207 144.805V145.776H68.7649V144.805H69.7207ZM72.0136 149.715C72.0136 150.046 72.0675 150.346 72.1754 150.616C72.2867 150.882 72.4536 151.094 72.6761 151.253C72.902 151.411 73.1835 151.491 73.5206 151.491C73.8544 151.491 74.141 151.413 74.3803 151.258C74.6231 151.103 74.7782 150.879 74.8456 150.585H75.7306C75.6665 150.939 75.5249 151.238 75.3058 151.48C75.0867 151.723 74.822 151.907 74.5118 152.032C74.2017 152.153 73.878 152.214 73.5409 152.214C73.052 152.214 72.6221 152.107 72.2513 151.895C71.8804 151.683 71.5905 151.378 71.3815 150.98C71.1724 150.582 71.0679 150.105 71.0679 149.549C71.0679 148.999 71.1623 148.517 71.3511 148.102C71.5399 147.688 71.813 147.364 72.1704 147.131C72.5311 146.899 72.9643 146.782 73.4701 146.782C73.9623 146.782 74.3787 146.889 74.7192 147.101C75.0597 147.313 75.3176 147.613 75.4929 148.001C75.6716 148.385 75.7609 148.842 75.7609 149.372V149.715H72.0136ZM72.0187 149.083H74.8608C74.8608 148.783 74.8102 148.514 74.7091 148.274C74.6079 148.031 74.4528 147.841 74.2438 147.703C74.0381 147.561 73.7785 147.49 73.465 147.49C73.138 147.49 72.8666 147.57 72.6508 147.728C72.4384 147.883 72.2783 148.084 72.1704 148.33C72.0659 148.573 72.0153 148.824 72.0187 149.083Z" fill="#F3F4EF"/>
<path d="M36.4648 46.9274C36.9806 46.9274 37.4375 47.0353 37.8353 47.2511C38.2331 47.4635 38.5534 47.7484 38.7961 48.1057C39.0389 48.4631 39.1822 48.8559 39.226 49.284H38.2297C38.1758 48.9975 38.073 48.7379 37.9213 48.5052C37.7695 48.2726 37.5706 48.0872 37.3245 47.949C37.0784 47.8107 36.7834 47.7416 36.4395 47.7416C35.9979 47.7416 35.6236 47.8461 35.3168 48.0552C35.0134 48.2608 34.7825 48.5794 34.624 49.011C34.4689 49.4425 34.3914 49.9954 34.3914 50.6697C34.3914 51.6879 34.565 52.4363 34.9123 52.9151C35.2629 53.3904 35.772 53.6281 36.4395 53.6281C36.7834 53.6281 37.0784 53.5556 37.3245 53.4107C37.5706 53.2657 37.7695 53.0718 37.9213 52.8291C38.073 52.5864 38.1758 52.3234 38.2297 52.0402H39.226C39.1889 52.3504 39.1046 52.6504 38.9731 52.9404C38.845 53.2269 38.668 53.4832 38.4421 53.709C38.2163 53.9349 37.9381 54.1136 37.6077 54.2451C37.2807 54.3766 36.8997 54.4423 36.4648 54.4423C35.8074 54.4423 35.246 54.2923 34.7808 53.9922C34.3189 53.6922 33.9649 53.2606 33.7188 52.6976C33.476 52.1346 33.3547 51.4552 33.3547 50.6596C33.3547 49.8673 33.476 49.193 33.7188 48.6367C33.9615 48.0804 34.3138 47.6573 34.7757 47.3674C35.241 47.0741 35.804 46.9274 36.4648 46.9274ZM42.6143 54.4423C42.1322 54.4423 41.7107 54.3395 41.35 54.1338C40.9893 53.9248 40.7094 53.6197 40.5105 53.2185C40.3116 52.8173 40.2121 52.3268 40.2121 51.7469C40.2121 51.2007 40.3049 50.722 40.4903 50.3106C40.6757 49.8993 40.9471 49.5807 41.3045 49.3548C41.6652 49.1256 42.1018 49.011 42.6143 49.011C43.0964 49.011 43.5145 49.1172 43.8685 49.3296C44.2258 49.5386 44.5023 49.8471 44.6978 50.255C44.8934 50.663 44.9911 51.1602 44.9911 51.7469C44.9911 52.2796 44.9001 52.7482 44.7181 53.1528C44.5394 53.5573 44.273 53.8742 43.919 54.1035C43.5684 54.3294 43.1335 54.4423 42.6143 54.4423ZM42.6143 53.704C42.9278 53.704 43.1925 53.6248 43.4083 53.4663C43.624 53.3078 43.7875 53.0803 43.8988 52.7836C44.0101 52.4869 44.0657 52.1346 44.0657 51.7266C44.0657 51.3524 44.0168 51.017 43.919 50.7203C43.8213 50.4202 43.6645 50.1825 43.4487 50.0072C43.2363 49.8319 42.9582 49.7442 42.6143 49.7442C42.2974 49.7442 42.0293 49.8235 41.8102 49.9819C41.5911 50.137 41.4242 50.3629 41.3095 50.6596C41.1983 50.9563 41.1427 51.312 41.1427 51.7266C41.1427 52.0941 41.1932 52.4279 41.2944 52.728C41.3955 53.028 41.554 53.2657 41.7697 53.441C41.9855 53.6163 42.267 53.704 42.6143 53.704ZM47.5351 54.4069C47.2519 54.4069 47.0227 54.3682 46.8473 54.2906C46.6754 54.2131 46.5422 54.1086 46.4478 53.9771C46.3568 53.8456 46.2944 53.6956 46.2607 53.527C46.2304 53.355 46.2152 53.178 46.2152 52.996V46.8263H47.1356V52.905C47.1356 53.1679 47.1862 53.3652 47.2873 53.4966C47.3918 53.6281 47.5368 53.7006 47.7222 53.7141L48.0054 53.7192V54.326C47.9279 54.3496 47.847 54.3682 47.7627 54.3816C47.6784 54.3985 47.6025 54.4069 47.5351 54.4069ZM50.3995 54.4069C50.1163 54.4069 49.8871 54.3682 49.7117 54.2906C49.5398 54.2131 49.4066 54.1086 49.3122 53.9771C49.2212 53.8456 49.1588 53.6956 49.1251 53.527C49.0948 53.355 49.0796 53.178 49.0796 52.996V46.8263H50V52.905C50 53.1679 50.0506 53.3652 50.1517 53.4966C50.2562 53.6281 50.4012 53.7006 50.5866 53.7141L50.8698 53.7192V54.326C50.7923 54.3496 50.7114 54.3682 50.6271 54.3816C50.5428 54.3985 50.4669 54.4069 50.3995 54.4069ZM52.6807 51.9441C52.6807 52.2745 52.7346 52.5746 52.8425 52.8443C52.9538 53.1106 53.1207 53.323 53.3432 53.4815C53.5691 53.6399 53.8506 53.7192 54.1877 53.7192C54.5215 53.7192 54.8081 53.6416 55.0474 53.4865C55.2902 53.3314 55.4453 53.1072 55.5127 52.8139H56.3977C56.3336 53.1679 56.192 53.4663 55.9729 53.709C55.7537 53.9518 55.4891 54.1355 55.1789 54.2603C54.8687 54.3816 54.5451 54.4423 54.2079 54.4423C53.7191 54.4423 53.2892 54.3361 52.9184 54.1237C52.5475 53.9113 52.2576 53.6062 52.0485 53.2084C51.8395 52.8106 51.735 52.3335 51.735 51.7772C51.735 51.2277 51.8294 50.7456 52.0182 50.3309C52.207 49.9162 52.4801 49.5925 52.8375 49.3599C53.1982 49.1273 53.6314 49.011 54.1371 49.011C54.6294 49.011 55.0457 49.1172 55.3863 49.3296C55.7268 49.542 55.9847 49.842 56.16 50.2297C56.3387 50.6141 56.428 51.0709 56.428 51.6002V51.9441H52.6807ZM52.6857 51.312H55.5279C55.5279 51.0119 55.4773 50.7422 55.3761 50.5028C55.275 50.2601 55.1199 50.0696 54.9109 49.9314C54.7052 49.7898 54.4456 49.719 54.1321 49.719C53.8051 49.719 53.5337 49.7982 53.3179 49.9566C53.1055 50.1117 52.9453 50.3123 52.8375 50.5584C52.7329 50.8012 52.6824 51.0524 52.6857 51.312ZM59.7958 49.011C60.1701 49.011 60.5072 49.0834 60.8073 49.2284C61.1073 49.37 61.3518 49.5723 61.5406 49.8353C61.7327 50.0982 61.8524 50.4084 61.8996 50.7658H61.0702C61.0399 50.5837 60.9691 50.4168 60.8578 50.2651C60.75 50.1134 60.6067 49.992 60.428 49.901C60.2493 49.81 60.0403 49.7645 59.8009 49.7645C59.3525 49.7645 58.9884 49.9263 58.7086 50.25C58.4287 50.5736 58.2888 51.0692 58.2888 51.7368C58.2888 52.3402 58.4169 52.824 58.6732 53.1882C58.9328 53.5489 59.3137 53.7293 59.8161 53.7293C60.0554 53.7293 60.2628 53.6838 60.4381 53.5927C60.6168 53.4983 60.7601 53.3753 60.868 53.2236C60.9758 53.0685 61.045 52.9033 61.0753 52.728H61.8895C61.8457 53.0786 61.7277 53.382 61.5355 53.6382C61.3433 53.8945 61.0972 54.0934 60.7972 54.235C60.5005 54.3732 60.1667 54.4423 59.7958 54.4423C59.3272 54.4423 58.9108 54.3395 58.5467 54.1338C58.186 53.9282 57.9028 53.6248 57.6971 53.2236C57.4915 52.8224 57.3886 52.3301 57.3886 51.7469C57.3886 51.2007 57.4814 50.7236 57.6668 50.3157C57.8556 49.9044 58.1287 49.5841 58.486 49.3548C58.8468 49.1256 59.2834 49.011 59.7958 49.011ZM65.6533 49.7948H64.475V53.0466C64.475 53.232 64.4935 53.3685 64.5306 53.4562C64.5711 53.5405 64.6368 53.5944 64.7278 53.618C64.8222 53.6416 64.9503 53.6534 65.1122 53.6534H65.6836V54.2805C65.6196 54.3041 65.5218 54.3243 65.3903 54.3412C65.2622 54.358 65.1021 54.3665 64.9099 54.3665C64.5491 54.3665 64.2693 54.3176 64.0704 54.2198C63.8715 54.122 63.7316 53.9771 63.6507 53.7849C63.5731 53.5927 63.5343 53.3567 63.5343 53.0769V49.7948H62.6847V49.1121H63.5596L63.7872 47.5899H64.475V49.107H65.6533V49.7948ZM68.9371 54.4423C68.455 54.4423 68.0336 54.3395 67.6728 54.1338C67.3121 53.9248 67.0322 53.6197 66.8333 53.2185C66.6344 52.8173 66.535 52.3268 66.535 51.7469C66.535 51.2007 66.6277 50.722 66.8131 50.3106C66.9985 49.8993 67.2699 49.5807 67.6273 49.3548C67.988 49.1256 68.4246 49.011 68.9371 49.011C69.4192 49.011 69.8373 49.1172 70.1913 49.3296C70.5486 49.5386 70.8251 49.8471 71.0206 50.255C71.2162 50.663 71.314 51.1602 71.314 51.7469C71.314 52.2796 71.2229 52.7482 71.0409 53.1528C70.8622 53.5573 70.5958 53.8742 70.2418 54.1035C69.8912 54.3294 69.4563 54.4423 68.9371 54.4423ZM68.9371 53.704C69.2506 53.704 69.5153 53.6248 69.7311 53.4663C69.9468 53.3078 70.1104 53.0803 70.2216 52.7836C70.3329 52.4869 70.3885 52.1346 70.3885 51.7266C70.3885 51.3524 70.3396 51.017 70.2418 50.7203C70.1441 50.4202 69.9873 50.1825 69.7715 50.0072C69.5591 49.8319 69.281 49.7442 68.9371 49.7442C68.6202 49.7442 68.3522 49.8235 68.133 49.9819C67.9139 50.137 67.747 50.3629 67.6324 50.6596C67.5211 50.9563 67.4655 51.312 67.4655 51.7266C67.4655 52.0941 67.516 52.4279 67.6172 52.728C67.7183 53.028 67.8768 53.2657 68.0926 53.441C68.3083 53.6163 68.5898 53.704 68.9371 53.704ZM72.538 54.3412V49.1121H73.4281V50.1185C73.5157 49.869 73.6388 49.6633 73.7973 49.5015C73.9557 49.3363 74.1361 49.2132 74.3384 49.1323C74.544 49.0514 74.7564 49.011 74.9756 49.011C75.0531 49.011 75.129 49.016 75.2031 49.0261C75.2773 49.0362 75.3346 49.0531 75.3751 49.0767V49.9819C75.3245 49.9583 75.2588 49.9432 75.1779 49.9364C75.1003 49.9263 75.0346 49.9212 74.9806 49.9212C74.7716 49.9078 74.5761 49.9212 74.394 49.9617C74.2119 49.9988 74.0518 50.0645 73.9136 50.1589C73.7753 50.2533 73.6658 50.3781 73.5849 50.5332C73.5073 50.6849 73.4685 50.8703 73.4685 51.0894V54.3412H72.538Z" fill="#F3F4EF"/>
</svg>
