<svg width="22" height="22" viewBox="0 0 22 22" fill="none" xmlns="http://www.w3.org/2000/svg">
<path d="M2.97084 6.68246L10.7808 10.9266C10.9183 11 11.0833 11 11.2208 10.9266L19.0308 6.68246C19.1765 6.61051 19.2648 6.45815 19.2548 6.29597C19.2448 6.13378 19.1385 5.99344 18.985 5.93996L11.175 2.74996C11.0634 2.70412 10.9383 2.70412 10.8267 2.74996L3.01668 5.93996C2.86324 5.99344 2.75688 6.13378 2.74686 6.29597C2.73685 6.45815 2.82514 6.61051 2.97084 6.68246Z" fill="#737B6F"/>
<path opacity="0.9" d="M18.9851 9.77164L17.3076 9.05664L11.2209 12.3658C11.0834 12.4391 10.9184 12.4391 10.7809 12.3658L4.69424 9.05664L3.01674 9.77164C2.87194 9.84765 2.78125 9.99769 2.78125 10.1612C2.78125 10.3248 2.87194 10.4748 3.01674 10.5508L10.8267 15.0425C10.9618 15.1251 11.1317 15.1251 11.2667 15.0425L19.0767 10.5508C19.2146 10.459 19.2893 10.2976 19.2699 10.1331C19.2506 9.9686 19.1405 9.8289 18.9851 9.77164Z" fill="#7E857A"/>
<path d="M18.9842 13.8417L17.5542 13.2184L11.22 16.6651C11.0825 16.7384 10.9175 16.7384 10.78 16.6651L4.44585 13.2184L3.01585 13.8417C2.86692 13.9189 2.77344 14.0727 2.77344 14.2405C2.77344 14.4082 2.86692 14.562 3.01585 14.6392L10.8258 19.2226C10.9633 19.2959 11.1283 19.2959 11.2658 19.2226L19.0758 14.6392C19.2179 14.5462 19.2953 14.3809 19.2759 14.2122C19.2566 14.0435 19.1437 13.9001 18.9842 13.8417Z" fill="#F3F4EF"/>
</svg>
