<svg width="24" height="25" viewBox="0 0 24 25" fill="none" xmlns="http://www.w3.org/2000/svg">
<circle cx="12" cy="12.0117" r="1.5" fill="#212B36"/>
<path fill-rule="evenodd" clip-rule="evenodd" d="M19.23 9.38172H20.32C21.2495 9.38722 22 10.1422 22 11.0717V13.0117C21.9952 13.9127 21.2805 14.6496 20.38 14.6817H19.29C19.1589 14.6928 19.046 14.7785 19 14.9017C18.927 15.0143 18.927 15.1592 19 15.2717L19.73 16.0017C20.0457 16.3152 20.2233 16.7418 20.2233 17.1867C20.2233 17.6317 20.0457 18.0582 19.73 18.3717L18.39 19.7117C18.0801 20.0306 17.6546 20.2109 17.21 20.2117C16.7635 20.2059 16.3367 20.0266 16.02 19.7117L15.26 18.9417C15.1475 18.8687 15.0025 18.8687 14.89 18.9417C14.74 19.0017 14.63 19.1017 14.63 19.2417V20.3317C14.6245 21.2612 13.8695 22.0117 12.94 22.0117H11.05C10.1451 22.0123 9.40232 21.296 9.37 20.3917V19.3017C9.35895 19.1706 9.27326 19.0577 9.15 19.0117C9.02506 18.9317 8.86494 18.9317 8.74 19.0117L7.97 19.7517C7.65648 20.0674 7.22994 20.245 6.785 20.245C6.34006 20.245 5.91352 20.0674 5.6 19.7517L4.26 18.3917C3.93962 18.0787 3.75931 17.6496 3.76 17.2017C3.76586 16.7552 3.94517 16.3284 4.26 16.0117L5.07 15.2717C5.14298 15.1592 5.14298 15.0143 5.07 14.9017C5.01 14.7517 4.91 14.6417 4.77 14.6417H3.68C2.75055 14.6362 1.99998 13.8812 2 12.9517V11.0617C2 10.1339 2.75216 9.38172 3.68 9.38172H4.71C4.84109 9.37066 4.95403 9.28498 5 9.16172C5.08005 9.03677 5.08005 8.87666 5 8.75172L4.26 8.01172C3.93494 7.69711 3.75142 7.26409 3.75142 6.81172C3.75142 6.35935 3.93494 5.92633 4.26 5.61172L5.63 4.27172C5.9399 3.95287 6.36536 3.77259 6.81 3.77172C7.25653 3.77758 7.68328 3.95689 8 4.27172L8.74 5.08172C8.85254 5.1547 8.99746 5.1547 9.11 5.08172C9.26 5.02172 9.37 4.92172 9.37 4.78172V3.69172C9.3755 2.76227 10.1305 2.0117 11.06 2.01172H13C13.9083 2.03876 14.6304 2.78306 14.63 3.69172V4.72172C14.6411 4.85281 14.7267 4.96575 14.85 5.01172C14.9749 5.09177 15.1351 5.09177 15.26 5.01172L16.03 4.27172C16.3435 3.956 16.7701 3.77844 17.215 3.77844C17.6599 3.77844 18.0865 3.956 18.4 4.27172L19.74 5.64172C20.0594 5.95534 20.2396 6.38407 20.24 6.83172C20.2414 7.27682 20.0608 7.70315 19.74 8.01172L18.93 8.75172C18.857 8.86425 18.857 9.00918 18.93 9.12172C18.99 9.27172 19.09 9.38172 19.23 9.38172ZM8.76642 13.3511C9.30816 14.659 10.5844 15.5117 12 15.5117C13.933 15.5117 15.5 13.9447 15.5 12.0117C15.5 10.5961 14.6473 9.31987 13.3394 8.77814C12.0315 8.23641 10.5261 8.53585 9.52513 9.53684C8.52413 10.5378 8.22469 12.0433 8.76642 13.3511Z" fill="#212B36"/>
</svg>
