<svg width="20" height="21" viewBox="0 0 20 21" fill="none" xmlns="http://www.w3.org/2000/svg">
<path fill-rule="evenodd" clip-rule="evenodd" d="M1.66699 10.7501C1.66699 6.14771 5.39795 2.41675 10.0003 2.41675C12.2105 2.41675 14.3301 3.29472 15.8929 4.85752C17.4557 6.42033 18.3337 8.53994 18.3337 10.7501C18.3337 15.3525 14.6027 19.0834 10.0003 19.0834C5.39795 19.0834 1.66699 15.3525 1.66699 10.7501ZM9.77533 13.7584L13.5837 8.75841V8.73342C13.7653 8.49524 13.806 8.17827 13.6906 7.9019C13.5751 7.62553 13.321 7.43176 13.0239 7.39356C12.7268 7.35537 12.4319 7.47857 12.2503 7.71675L9.10033 11.8834L7.74199 10.1501C7.55889 9.91488 7.26423 9.79523 6.96899 9.8362C6.67375 9.87717 6.42279 10.0725 6.31065 10.3487C6.19851 10.6249 6.24223 10.9399 6.42533 11.1751L8.45866 13.7667C8.61768 13.968 8.86051 14.0848 9.11699 14.0834C9.37491 14.0828 9.618 13.9628 9.77533 13.7584Z" fill="#229A16"/>
</svg>
