<svg width="20" height="21" viewBox="0 0 20 21" fill="none" xmlns="http://www.w3.org/2000/svg">
<path fill-rule="evenodd" clip-rule="evenodd" d="M1.66699 10.7501C1.66699 6.14771 5.39795 2.41675 10.0003 2.41675C12.2105 2.41675 14.3301 3.29472 15.8929 4.85752C17.4557 6.42033 18.3337 8.53994 18.3337 10.7501C18.3337 15.3525 14.6027 19.0834 10.0003 19.0834C5.39795 19.0834 1.66699 15.3525 1.66699 10.7501ZM12.5052 12.4167C12.5052 12.1946 12.4164 11.9816 12.2587 11.8251L11.1753 10.7501L12.2587 9.67508C12.5854 9.34831 12.5854 8.81852 12.2587 8.49175C11.9319 8.16498 11.4021 8.16498 11.0753 8.49175L10.0003 9.57508L8.92533 8.49175C8.59856 8.16498 8.06876 8.16498 7.74199 8.49175C7.41522 8.81852 7.41522 9.34831 7.74199 9.67508L8.82533 10.7501L7.74199 11.8251C7.58423 11.9816 7.49549 12.1946 7.49549 12.4167C7.49549 12.6389 7.58423 12.8519 7.74199 13.0084C7.89846 13.1662 8.11146 13.2549 8.33366 13.2549C8.55586 13.2549 8.76885 13.1662 8.92533 13.0084L10.0003 11.9251L11.0753 13.0084C11.2318 13.1662 11.4448 13.2549 11.667 13.2549C11.8892 13.2549 12.1022 13.1662 12.2587 13.0084C12.4164 12.8519 12.5052 12.6389 12.5052 12.4167Z" fill="#B72136"/>
</svg>
