<svg width="20" height="20" viewBox="0 0 20 20" fill="none" xmlns="http://www.w3.org/2000/svg">
<path opacity="0.48" d="M13.0286 10.4298L10.9744 8.33369C10.9735 8.33271 10.9726 8.33187 10.9716 8.33089C10.9698 8.32894 10.9679 8.32698 10.9659 8.32502C10.9645 8.32376 10.9633 8.32236 10.962 8.3211C10.9602 8.31929 10.9584 8.31761 10.9565 8.31579C10.9554 8.31481 10.9544 8.31383 10.9535 8.31285C10.7634 8.12948 10.5049 8.0166 10.22 8.0166C9.92806 8.0166 9.66398 8.13493 9.47277 8.32628L7.36014 10.4389C6.94766 10.8514 6.94766 11.5203 7.36014 11.9329C7.56646 12.1392 7.83683 12.2423 8.1072 12.2423C8.37743 12.2423 8.64781 12.1392 8.85412 11.9329L9.09204 11.695C9.11848 11.6685 9.16352 11.6873 9.16352 11.7246V15.856C9.16352 16.4482 9.64817 16.9472 10.2403 16.936C10.8143 16.9251 11.2763 16.4564 11.2763 15.8798V11.7629C11.2763 11.7255 11.3219 11.7069 11.3482 11.7336L11.536 11.9253C11.7429 12.1364 12.0166 12.2423 12.2905 12.2423C12.5644 12.2423 12.8384 12.1365 13.046 11.9242C13.4506 11.5107 13.4335 10.8429 13.0286 10.4298Z" fill="#7E857A"/>
<path d="M16.2287 7.1597C16.0613 4.56214 13.8954 2.5 11.2568 2.5C10.7792 2.5 10.3053 2.56798 9.84833 2.70198C8.65438 3.05264 7.63276 3.84529 6.99228 4.9051C6.62134 4.72047 6.21319 4.6241 5.7919 4.6241C4.43066 4.6241 3.29909 5.62796 3.116 6.95101C2.47217 7.25174 1.92387 7.71807 1.52048 8.31043C1.07079 8.97105 0.833008 9.74202 0.833008 10.54C0.833008 12.6953 2.52001 14.4347 4.67376 14.4999L8.26903 14.5003V13.131C8.2156 13.1353 8.16175 13.1374 8.10776 13.1374C7.58646 13.1374 7.09635 12.9345 6.72778 12.5658C5.96688 11.805 5.96688 10.5669 6.72778 9.80595L8.84041 7.69332C9.20884 7.32461 9.69909 7.12152 10.2205 7.12152C10.7288 7.12152 11.2101 7.3158 11.5758 7.66884C11.5765 7.66954 11.5816 7.67443 11.5869 7.67975L13.6685 9.80329C14.415 10.5649 14.4231 11.7973 13.6866 12.5502C13.316 12.929 12.8205 13.1374 12.2912 13.1374C12.2513 13.1374 12.2116 13.1363 12.1722 13.1339V14.5005L15.5888 14.4998C17.5949 14.428 19.1663 12.7987 19.1663 10.7904C19.1663 9.02504 17.9247 7.51862 16.2287 7.1597Z" fill="#EFF1EC"/>
</svg>
